<!DOCTYPE svg PUBLIC "-//W3C//DTD SVG 20010904//EN" "http://www.w3.org/TR/2001/REC-SVG-20010904/DTD/svg10.dtd">
<svg version="1.0" xmlns="http://www.w3.org/2000/svg" width="1200px" height="585px" viewBox="0 0 12000 5850" preserveAspectRatio="xMidYMid meet">
<g id="layer101" fill="#c23c23" stroke="none">
<path d="M2365 2189 c-52 -6 -81 -14 -190 -46 -11 -4 -53 -24 -94 -45 -52 -28 -76 -36 -81 -27 -4 6 -22 29 -40 50 -28 35 -37 39 -77 39 -46 0 -46 0 -39 -57 7 -63 20 -136 41 -228 8 -33 19 -91 26 -130 6 -38 17 -92 24 -120 7 -27 16 -72 20 -98 6 -48 6 -48 58 -45 51 3 51 3 68 108 27 164 29 172 67 248 94 184 243 262 477 250 100 -6 181 -33 254 -86 180 -130 215 -417 70 -576 -56 -61 -101 -86 -317 -171 -90 -35 -195 -83 -233 -106 -154 -93 -239 -238 -239 -411 0 -109 54 -261 117 -326 7 -7 29 -33 49 -57 38 -47 144 -122 204 -145 19 -7 40 -17 45 -21 23 -17 177 -50 262 -56 123 -8 307 23 348 59 5 4 15 8 22 8 7 0 38 17 69 37 56 37 56 37 95 -7 21 -25 39 -48 39 -52 0 -5 23 -8 51 -8 64 0 69 -50 -42 450 -17 74 -33 151 -37 170 -7 34 -9 35 -60 38 -52 3 -52 3 -52 -34 0 -20 -9 -91 -21 -157 -30 -176 -70 -260 -154 -324 -69 -52 -125 -66 -255 -67 -106 0 -119 2 -170 27 -99 49 -165 123 -199 224 -32 95 -27 209 14 298 32 69 156 153 300 203 34 11 74 26 90 33 17 6 39 15 50 19 29 11 149 72 155 79 3 3 17 12 33 20 42 22 141 126 165 174 34 65 52 136 52 202 0 61 -27 185 -51 240 -17 38 -62 109 -71 113 -5 2 -8 10 -8 17 0 16 -112 121 -174 163 -41 28 -118 67 -181 91 -110 44 -321 61 -480 40z"/>
<path d="M4727 2190 c-76 -14 -172 -64 -227 -119 -135 -135 -175 -384 -105 -653 22 -84 86 -244 104 -258 4 -3 22 -30 41 -60 61 -96 157 -186 283 -262 32 -19 108 -48 163 -62 90 -23 294 -22 366 2 91 30 167 101 195 182 34 94 -2 241 -81 336 -82 98 -288 196 -516 244 -30 6 -82 18 -115 25 -33 8 -89 17 -125 20 -65 6 -65 6 -58 103 9 145 37 218 111 292 58 59 106 73 234 68 87 -3 105 -7 165 -36 65 -33 195 -148 234 -207 15 -24 44 -35 44 -17 0 5 11 15 25 22 31 16 31 18 3 54 -124 158 -241 247 -403 306 -68 24 -253 36 -338 20z m63 -714 c47 -8 101 -20 120 -26 19 -6 51 -15 70 -21 133 -40 244 -133 291 -244 25 -59 29 -82 29 -158 0 -105 -14 -136 -73 -162 -57 -25 -150 -16 -230 23 -81 40 -126 83 -199 192 -59 88 -128 258 -128 314 0 14 -5 37 -10 52 -15 37 -5 58 23 51 12 -4 60 -13 107 -21z"/>
<path d="M3715 2174 c-51 -19 -101 -68 -116 -113 -7 -21 -9 -64 -6 -111 6 -73 12 -104 42 -230 8 -30 25 -107 40 -170 34 -152 44 -194 60 -260 7 -30 19 -82 25 -115 7 -33 18 -80 25 -105 7 -25 25 -99 40 -165 14 -66 32 -145 39 -175 8 -30 19 -82 26 -115 7 -33 18 -80 25 -105 14 -47 16 -57 39 -181 17 -90 7 -149 -30 -178 -13 -11 -58 -24 -104 -32 -74 -12 -81 -15 -76 -33 3 -12 6 -31 6 -43 0 -22 3 -23 103 -23 56 0 173 -5 260 -12 106 -8 161 -8 168 -1 6 6 1 44 -16 114 -14 57 -30 122 -35 144 -4 22 -15 69 -24 105 -8 36 -27 117 -41 180 -14 63 -30 131 -35 150 -5 19 -16 65 -24 103 -9 37 -22 95 -30 130 -8 34 -27 114 -41 177 -15 63 -30 131 -35 150 -5 19 -15 64 -24 100 -8 36 -25 106 -37 155 -12 50 -25 108 -29 130 -4 22 -17 85 -30 139 -30 136 -17 199 46 230 40 19 126 21 190 5 25 -6 47 -9 50 -6 3 3 2 21 -1 40 -5 24 -15 38 -33 47 -72 33 -93 41 -167 65 -91 29 -186 32 -250 9z"/>
<path d="M7595 2165 c-35 -12 -57 -32 -107 -93 -15 -20 -12 -166 6 -237 21 -87 64 -251 75 -288 95 -320 114 -463 72 -545 -33 -66 -65 -82 -160 -82 -45 0 -89 4 -99 9 -9 4 -43 21 -74 36 -60 29 -198 148 -198 170 0 7 -6 35 -14 61 -8 27 -25 99 -39 159 -14 61 -35 151 -47 200 -11 50 -28 119 -36 155 -8 36 -21 90 -28 120 -15 59 -61 257 -71 303 -5 27 -5 27 -136 27 -119 0 -130 -1 -126 -17 3 -10 11 -43 17 -73 7 -30 18 -75 25 -100 7 -25 18 -72 25 -105 6 -33 18 -85 25 -115 8 -30 19 -77 25 -105 6 -27 17 -75 25 -105 107 -422 111 -525 20 -594 -34 -26 -40 -27 -123 -23 -48 2 -100 8 -117 13 -54 16 -140 72 -201 131 -65 63 -62 56 -124 328 -16 72 -41 179 -55 235 -15 62 -60 259 -77 335 -6 28 -17 72 -24 99 -8 27 -14 60 -14 73 0 23 -1 23 -130 23 -144 0 -138 4 -120 -72 6 -24 24 -101 41 -173 16 -71 35 -152 41 -180 6 -27 15 -63 20 -80 5 -16 16 -64 24 -105 14 -67 38 -177 80 -357 17 -76 18 -202 1 -224 -30 -40 -100 -49 -207 -29 -29 6 -54 9 -56 7 -8 -8 22 -86 35 -91 9 -2 59 -21 111 -42 86 -33 105 -37 195 -38 146 -2 187 29 216 164 6 27 13 50 16 50 7 0 93 -61 118 -83 11 -10 34 -26 50 -34 17 -9 32 -19 35 -23 8 -11 136 -70 153 -70 9 0 19 -4 22 -10 4 -6 55 -10 121 -10 129 0 176 15 231 73 37 38 73 104 73 132 0 43 15 46 56 12 127 -105 240 -175 333 -203 56 -17 234 -19 282 -3 52 18 116 85 139 147 22 59 26 143 9 224 -14 67 -65 276 -85 348 -8 30 -24 91 -35 135 -11 44 -25 100 -31 125 -16 62 -16 191 0 222 8 13 28 30 46 36 40 15 129 15 179 1 22 -6 41 -8 43 -6 11 10 -9 87 -22 87 -8 0 -22 4 -32 9 -45 22 -91 40 -127 49 -22 6 -59 15 -81 21 -56 15 -141 13 -189 -4z"/>
</g>
<g id="layer102" fill="#6b9638" stroke="none">
<path d="M3245 4533 c-56 -17 -99 -44 -132 -82 -18 -21 -22 -39 -23 -92 0 -62 2 -68 35 -102 33 -34 41 -37 91 -37 96 0 137 37 209 189 26 54 26 54 105 48 111 -7 229 -67 299 -151 9 -10 28 -33 42 -50 53 -63 132 -229 160 -336 8 -32 39 -172 39 -177 0 -12 -29 4 -69 37 -26 22 -53 40 -59 40 -7 0 -12 3 -12 8 0 9 -110 71 -170 95 -107 43 -298 30 -387 -26 -188 -119 -257 -457 -156 -757 14 -41 36 -94 49 -118 13 -23 24 -47 24 -52 0 -5 27 -48 61 -95 111 -155 265 -270 434 -323 35 -12 91 -16 190 -17 145 0 179 6 289 54 54 24 67 23 215 -20 35 -11 69 -19 77 -19 19 0 18 39 -6 146 -11 49 -25 112 -30 139 -5 28 -16 82 -25 120 -9 39 -24 113 -35 165 -17 85 -32 155 -59 275 -5 22 -15 67 -21 100 -36 186 -86 379 -123 475 -44 116 -121 262 -162 306 -134 145 -172 173 -318 233 -104 42 -426 57 -532 24z m580 -741 c11 -6 39 -19 63 -28 23 -10 42 -21 42 -24 0 -4 12 -12 26 -19 14 -6 51 -34 83 -61 55 -49 57 -53 74 -133 10 -45 25 -109 32 -142 7 -33 18 -87 25 -120 6 -33 17 -87 25 -120 7 -33 19 -87 25 -120 6 -33 17 -86 25 -117 37 -164 -71 -288 -250 -288 -70 0 -179 39 -222 79 -12 12 -24 21 -27 21 -3 0 -20 15 -38 33 -121 121 -183 246 -237 480 -17 73 -14 328 4 390 22 73 63 128 120 160 45 25 57 27 130 24 44 -2 89 -8 100 -15z"/>
<path d="M1531 3952 c-32 -28 -32 -28 51 -102 108 -97 120 -111 112 -129 -57 -135 -58 -140 -58 -306 0 -139 3 -171 23 -240 28 -96 99 -247 141 -300 16 -21 30 -42 30 -46 0 -31 210 -197 290 -228 19 -8 40 -18 46 -23 7 -5 38 -16 70 -25 76 -22 331 -25 384 -5 75 29 145 69 182 105 39 37 39 37 81 1 163 -141 144 -130 178 -98 30 28 30 28 -33 84 -137 121 -133 114 -113 157 43 89 55 154 55 290 0 151 -15 230 -67 353 -8 19 -19 46 -25 60 -6 14 -14 32 -19 40 -5 8 -12 23 -15 33 -4 9 -10 17 -14 17 -4 0 -15 16 -26 35 -10 19 -22 35 -26 35 -5 0 -8 4 -8 9 0 14 -135 144 -171 165 -19 11 -36 23 -39 27 -8 12 -123 67 -155 74 -16 4 -49 13 -73 21 -68 22 -278 19 -351 -6 -77 -26 -127 -54 -177 -102 -27 -26 -46 -37 -57 -32 -9 3 -17 10 -17 15 0 5 -4 9 -10 9 -5 0 -24 15 -42 33 -117 114 -111 111 -147 79z m764 -87 c167 -51 309 -262 371 -550 18 -86 31 -355 17 -355 -5 0 -36 26 -70 58 -33 31 -100 93 -149 136 -49 44 -106 97 -127 118 -21 21 -39 38 -42 38 -3 0 -114 102 -203 188 -24 23 -46 42 -47 42 -2 0 -29 24 -60 54 -52 49 -56 57 -50 85 3 16 24 57 46 91 32 49 49 66 92 85 62 29 146 33 222 10z m-347 -352 c15 -16 88 -82 162 -148 74 -66 136 -123 138 -127 2 -4 56 -53 120 -110 64 -56 151 -135 192 -174 41 -40 85 -81 98 -91 23 -18 23 -18 4 -63 -51 -117 -120 -170 -233 -178 -119 -8 -242 55 -327 170 -42 56 -85 130 -94 163 -4 11 -15 45 -26 75 -23 64 -46 166 -61 268 -11 75 -15 242 -6 242 3 0 18 -12 33 -27z"/>
<path d="M6865 3955 c-168 -53 -285 -175 -338 -356 -25 -81 -23 -300 2 -394 34 -122 78 -225 131 -305 17 -25 39 -58 50 -75 37 -57 198 -184 285 -224 17 -7 38 -18 49 -23 103 -53 396 -60 511 -11 97 41 202 143 243 237 41 93 47 130 46 286 -1 174 -12 230 -71 370 -105 246 -295 417 -552 494 -66 20 -295 21 -356 1z m296 -86 c69 -22 105 -43 157 -93 61 -57 95 -105 135 -191 16 -33 32 -67 36 -75 5 -8 20 -62 34 -120 65 -264 63 -500 -4 -635 -56 -111 -192 -162 -325 -119 -60 19 -114 46 -114 56 0 5 -4 8 -10 8 -13 0 -90 77 -90 90 0 6 -4 10 -8 10 -8 0 -86 147 -103 195 -57 155 -73 250 -73 450 -1 178 1 194 24 255 28 75 95 149 150 166 47 15 149 17 191 3z"/>
<path d="M9565 3951 c-92 -28 -134 -48 -182 -87 -55 -45 -73 -80 -73 -143 0 -161 160 -217 259 -92 17 21 31 42 31 47 0 4 12 41 27 81 26 69 31 75 77 98 38 19 66 25 116 25 128 0 220 -45 270 -133 26 -45 30 -62 30 -129 0 -50 -6 -89 -16 -110 -23 -49 -102 -102 -222 -149 -152 -59 -190 -77 -248 -117 -175 -122 -192 -367 -37 -533 58 -62 124 -106 218 -145 67 -27 77 -28 235 -29 179 0 227 10 317 64 47 28 83 87 83 136 0 47 -37 111 -74 129 -47 22 -112 20 -151 -4 -33 -20 -88 -119 -110 -197 -14 -51 -150 -59 -249 -14 -155 70 -197 266 -79 371 31 28 100 62 208 105 71 27 176 76 185 85 3 3 23 18 46 33 49 33 94 94 119 160 31 82 6 233 -54 330 -57 92 -184 179 -316 217 -95 27 -321 27 -410 1z"/>
<path d="M971 3935 c-68 -31 -111 -106 -111 -194 0 -49 24 -152 86 -376 14 -53 46 -179 70 -280 8 -33 19 -77 25 -99 24 -87 4 -203 -43 -253 -48 -52 -189 -54 -277 -5 -117 65 -231 163 -231 198 0 10 -6 43 -14 73 -8 31 -27 108 -41 171 -39 174 -45 200 -60 260 -7 30 -18 78 -24 105 -14 65 -68 298 -83 353 -11 42 -11 42 -140 42 -120 0 -130 -1 -123 -17 4 -10 10 -40 15 -68 5 -27 13 -63 18 -80 5 -16 14 -52 20 -80 17 -77 62 -273 76 -335 8 -30 19 -82 26 -115 7 -33 18 -80 25 -105 7 -25 18 -72 25 -105 7 -33 18 -82 25 -110 7 -27 18 -77 25 -110 7 -33 18 -85 26 -115 7 -30 18 -77 24 -105 6 -27 17 -75 25 -105 25 -100 42 -174 55 -235 7 -33 18 -83 26 -112 8 -28 14 -76 14 -106 0 -91 -42 -125 -177 -143 -58 -7 -58 -7 -43 -51 11 -29 11 -29 178 -41 92 -7 211 -12 265 -12 99 0 99 0 92 43 -3 23 -10 56 -15 72 -4 17 -15 64 -24 105 -9 41 -28 122 -42 180 -51 212 -69 293 -96 415 -6 28 -14 63 -19 79 -5 16 -9 42 -9 58 0 29 0 29 62 -19 81 -63 116 -84 218 -135 85 -42 85 -42 205 -42 133 -1 165 8 224 65 54 52 71 100 71 213 0 54 -5 117 -11 140 -6 22 -17 66 -24 96 -20 79 -64 251 -90 350 -41 160 -45 180 -45 248 0 85 15 119 59 133 35 12 178 7 214 -7 18 -7 18 1 1 67 -3 10 -48 33 -117 59 -98 38 -124 44 -207 47 -70 3 -104 0 -129 -12z"/>
<path d="M5843 3931 c-47 -22 -90 -79 -103 -136 -10 -45 6 -148 50 -310 18 -66 36 -133 40 -150 4 -16 22 -84 40 -150 48 -177 54 -212 54 -295 0 -87 -18 -134 -67 -171 -28 -21 -42 -24 -120 -23 -52 1 -93 6 -99 12 -7 7 -18 12 -26 12 -45 0 -252 169 -252 206 0 10 -6 43 -14 73 -14 54 -56 233 -78 336 -6 28 -15 64 -20 80 -5 17 -13 50 -17 75 -11 59 -79 355 -93 403 -11 37 -11 37 -141 37 -119 0 -129 -1 -122 -17 3 -10 9 -31 12 -48 5 -29 15 -77 63 -280 11 -49 25 -110 31 -135 6 -25 16 -70 24 -100 7 -30 19 -82 26 -115 6 -33 18 -82 25 -110 23 -87 54 -256 54 -295 0 -115 -70 -153 -219 -118 -28 6 -53 10 -55 7 -2 -2 -1 -21 1 -41 5 -35 9 -38 72 -63 145 -59 206 -75 284 -75 106 0 177 63 191 170 3 26 9 50 12 53 5 5 102 -60 124 -83 9 -9 93 -64 130 -84 110 -61 280 -84 383 -51 62 19 119 72 150 138 27 59 23 194 -9 320 -14 56 -30 118 -34 137 -5 19 -20 80 -35 135 -91 345 -97 384 -69 454 11 28 24 43 46 50 37 13 125 14 188 1 25 -4 46 -7 48 -6 6 7 -26 81 -39 87 -21 10 -56 25 -134 55 -96 37 -240 44 -302 15z"/>
<path d="M11521 3943 c-38 -8 -95 -48 -128 -90 -38 -48 -59 -89 -118 -233 -53 -128 -72 -176 -85 -205 -5 -11 -19 -48 -31 -83 -22 -63 -36 -82 -48 -66 -3 5 -31 29 -61 54 -76 62 -80 66 -80 85 0 15 -8 50 -45 205 -8 30 -21 91 -30 135 -9 44 -21 93 -26 109 -5 16 -9 40 -9 52 0 24 0 24 -130 24 -143 0 -141 1 -121 -66 5 -16 16 -63 25 -104 10 -41 23 -100 30 -130 8 -30 19 -82 26 -115 7 -33 18 -80 25 -105 7 -25 18 -72 25 -105 7 -33 18 -82 25 -110 7 -27 18 -77 25 -110 7 -33 18 -82 25 -110 7 -27 18 -77 25 -110 7 -33 16 -73 22 -90 5 -16 14 -52 19 -80 17 -87 26 -126 59 -265 18 -74 36 -151 40 -170 5 -19 16 -69 26 -110 43 -179 13 -237 -138 -261 -34 -6 -64 -12 -66 -14 -3 -2 -2 -19 2 -38 6 -33 6 -33 179 -45 189 -13 367 -16 367 -5 0 4 -7 32 -14 62 -13 50 -25 100 -81 336 -7 33 -25 107 -39 165 -31 132 -63 266 -82 350 -8 36 -21 90 -28 120 -8 30 -26 109 -41 175 -15 66 -31 134 -35 150 -32 118 -42 125 267 -183 268 -266 397 -380 466 -410 69 -30 198 -5 213 41 3 9 10 17 15 17 5 0 9 29 9 65 0 64 -1 67 -44 109 -31 32 -54 46 -84 51 -47 8 -123 -2 -171 -21 -37 -15 -77 -18 -83 -6 -1 4 -36 29 -75 56 -40 27 -73 53 -73 58 0 4 -4 8 -10 8 -5 0 -29 18 -52 41 -24 22 -53 48 -65 56 -27 18 -29 39 -7 90 9 21 21 49 26 63 6 14 16 39 23 55 7 17 25 62 40 100 77 199 143 336 186 388 64 77 176 105 299 73 30 -8 56 -13 58 -11 2 2 -2 21 -9 43 -13 45 -14 45 -144 87 -79 26 -237 41 -294 28z"/>
<path d="M8115 3913 c4 -10 13 -47 21 -83 24 -108 32 -142 48 -215 9 -38 21 -92 26 -118 5 -27 12 -52 15 -57 3 -5 9 -28 14 -52 5 -24 16 -74 25 -113 67 -296 73 -326 81 -388 18 -146 -17 -192 -140 -183 -38 3 -88 8 -109 12 -34 6 -38 4 -33 -11 4 -9 10 -27 13 -40 6 -26 21 -35 119 -71 185 -69 317 -70 381 -3 34 35 54 90 54 147 0 25 5 42 11 42 10 0 111 -79 129 -100 16 -20 123 -93 170 -116 47 -25 67 -28 140 -28 76 0 90 2 128 27 30 20 50 43 64 74 42 95 4 274 -69 327 -38 28 -121 33 -167 11 -72 -35 -84 -121 -32 -240 16 -35 21 -57 14 -61 -12 -8 -110 23 -153 48 -16 10 -46 26 -66 37 -20 11 -72 54 -116 95 -85 81 -77 62 -122 256 -11 47 -29 128 -41 180 -12 52 -25 111 -30 130 -12 50 -40 168 -50 215 -5 22 -16 69 -24 105 -8 36 -22 92 -29 125 -14 60 -14 60 -147 63 -123 2 -132 1 -125 -15z"/>
</g>
<g id="layer103" fill="#ba8536" stroke="none">
<path d="M7632 5831 c-34 -10 -71 -26 -81 -35 -9 -9 -22 -16 -27 -16 -12 0 -70 -62 -101 -106 -80 -116 -113 -337 -78 -529 66 -359 347 -667 671 -734 78 -17 287 -4 319 18 6 4 33 16 60 26 28 10 54 21 58 25 4 4 67 -8 139 -27 72 -18 133 -33 135 -33 9 0 0 69 -21 156 -21 89 -62 265 -85 369 -14 61 -43 184 -105 447 -9 37 -16 99 -16 139 0 70 1 73 37 106 36 35 37 35 112 30 42 -3 89 -9 105 -13 29 -7 29 -7 23 31 -3 21 -8 39 -10 41 -2 3 -55 25 -118 51 -135 56 -228 67 -305 38 -53 -20 -105 -83 -124 -150 -7 -25 -15 -45 -19 -45 -3 0 -26 18 -50 40 -24 22 -45 40 -47 40 -2 0 -15 10 -29 23 -23 20 -57 40 -150 89 -81 42 -186 49 -293 19z m332 -156 c77 -24 133 -59 230 -147 43 -38 39 -29 86 -233 12 -51 57 -243 74 -315 8 -30 19 -82 26 -115 7 -33 16 -74 22 -92 15 -51 -8 -153 -44 -197 -45 -55 -101 -76 -203 -76 -76 0 -93 4 -148 31 -91 45 -219 179 -274 288 -24 45 -43 91 -43 101 0 10 -4 21 -8 24 -8 5 -29 75 -51 169 -15 66 -14 342 2 392 41 129 107 183 227 184 30 0 77 -6 104 -14z"/>
<path d="M6685 5812 c-57 -24 -63 -29 -92 -75 -23 -37 -26 -52 -25 -122 0 -48 9 -112 22 -160 12 -44 30 -111 40 -150 10 -38 33 -124 50 -190 89 -333 93 -426 19 -509 -25 -29 -39 -36 -86 -42 -93 -11 -216 28 -294 94 -99 84 -115 105 -133 177 -9 39 -23 95 -31 125 -7 30 -25 107 -40 170 -28 122 -57 247 -99 420 -14 58 -32 138 -42 178 -17 72 -17 72 -145 72 -71 0 -129 -3 -129 -7 0 -3 6 -29 14 -57 8 -28 20 -78 27 -111 6 -33 17 -80 24 -105 7 -25 18 -70 24 -100 7 -30 18 -80 26 -110 8 -30 23 -94 35 -142 11 -49 29 -127 40 -175 12 -49 25 -104 30 -124 16 -58 12 -178 -6 -219 -33 -74 -121 -104 -237 -80 -103 21 -158 54 -264 155 -46 45 -54 58 -69 120 -9 39 -20 86 -24 105 -17 73 -40 169 -65 280 -41 184 -45 202 -60 260 -25 101 -65 285 -65 298 0 9 -33 12 -130 12 -144 0 -142 1 -121 -66 5 -16 21 -83 36 -149 14 -66 32 -145 39 -175 8 -30 19 -82 26 -115 7 -33 18 -80 25 -105 7 -25 18 -72 25 -105 7 -33 16 -73 21 -90 26 -91 42 -201 43 -284 1 -122 -8 -131 -130 -131 -46 0 -95 5 -109 12 -34 15 -39 7 -25 -39 10 -32 20 -43 58 -60 169 -77 342 -97 413 -49 42 29 79 100 79 150 0 49 16 53 58 17 80 -66 205 -144 278 -172 102 -39 228 -49 304 -24 88 29 180 131 180 199 0 14 4 28 10 31 8 5 64 -32 107 -72 7 -6 29 -21 50 -34 21 -13 43 -28 49 -34 25 -24 147 -78 206 -91 148 -31 258 -11 330 62 78 79 95 184 57 355 -30 137 -36 158 -53 219 -9 30 -20 73 -25 95 -5 22 -23 93 -40 158 -55 212 -52 309 12 347 37 23 113 26 183 9 25 -6 46 -10 48 -8 2 2 1 21 -1 41 -5 37 -6 38 -97 71 -190 71 -271 83 -351 49z"/>
<path d="M9147 5809 c-20 -11 -51 -38 -67 -61 -28 -38 -30 -47 -30 -133 0 -50 6 -111 14 -136 8 -24 19 -71 26 -104 6 -33 18 -85 25 -115 8 -30 19 -77 25 -105 6 -27 17 -75 25 -105 7 -30 19 -82 25 -115 7 -33 18 -80 25 -105 7 -25 18 -72 25 -105 7 -33 19 -81 27 -107 8 -26 12 -52 8 -58 -4 -6 -55 -10 -127 -10 -120 0 -120 0 -114 -22 4 -13 10 -40 13 -60 6 -38 6 -38 134 -38 70 0 130 -4 134 -9 3 -5 9 -29 14 -53 10 -46 42 -181 68 -285 16 -63 16 -63 139 -63 68 0 124 3 124 6 0 5 -12 57 -64 276 -14 59 -26 112 -26 118 0 6 67 10 190 10 105 0 190 3 190 8 -1 4 -7 30 -14 57 -13 50 -13 50 -203 53 -191 2 -191 2 -217 115 -41 171 -65 275 -82 347 -8 36 -21 92 -29 125 -8 33 -21 92 -30 130 -8 39 -21 90 -27 114 -6 24 -12 83 -12 132 0 88 0 88 37 124 38 37 38 37 165 33 70 -2 135 -8 145 -12 20 -10 22 2 7 55 -7 25 -17 38 -33 42 -12 3 -69 22 -126 41 -97 34 -111 36 -225 36 -101 -1 -127 -4 -159 -21z"/>
</g>


</svg>